<?xml version="1.0" encoding="UTF-8" standalone="no"?>
<svg
   xmlns:dc="http://purl.org/dc/elements/1.1/"
   xmlns:cc="http://creativecommons.org/ns#"
   xmlns:rdf="http://www.w3.org/1999/02/22-rdf-syntax-ns#"
   xmlns:svg="http://www.w3.org/2000/svg"
   xmlns="http://www.w3.org/2000/svg"
   viewBox="0 0 317.19046 103.24892"
   height="110.13218"
   width="338.33649"
   version="1.1"
   id="svg2">
  <metadata
     id="metadata8">
    <rdf:RDF>
      <cc:Work
         rdf:about="">
        <dc:format>image/svg+xml</dc:format>
        <dc:type
           rdf:resource="http://purl.org/dc/dcmitype/StillImage" />
        <dc:title></dc:title>
      </cc:Work>
    </rdf:RDF>
  </metadata>
  <defs
     id="defs6" />
  <g
     transform="translate(-26.851854,-0.04595135)"
     id="g4216">
    <g
       transform="matrix(0.46872623,0,0,0.46872623,89.296296,31.79146)"
       id="g4232">
      <g
         transform="matrix(1.2645281,0,0,1.2645281,-331.87054,-100.71194)"
         id="g7238">
        <path
           d="m 381.9911,121.40232 c 0,8.86025 -0.7935,11.31 -2.92775,13.4477 -1.26475,1.26514 -3.24375,2.13379 -6.963,2.13379 h -13.05023 c -4.19238,0 -6.72071,-0.7124 -8.46338,-2.45019 -2.76562,-2.77005 -3.55664,-6.0923 -3.55664,-18.9038 0,-12.8135 0.79102,-16.137245 3.55664,-18.90387 1.74267,-1.73975 4.271,-2.449625 8.46338,-2.449625 h 12.97361 c 3.87262,0 5.61237,0.787625 6.95799,2.13475 2.05525,2.055125 2.84863,4.902875 2.84863,12.888625 h -7.98725 c -0.16013,-5.53612 -0.47562,-6.48338 -0.95162,-6.9585 -0.47563,-0.47363 -1.10701,-0.71138 -2.92588,-0.71138 h -9.88712 c -2.45073,0 -3.08353,0.23775 -3.63627,0.7915 -0.79101,0.78863 -1.1875,2.2925 -1.1875,13.2085 0,10.91263 0.39649,12.4165 1.1875,13.2075 0.55274,0.55375 1.18554,0.7915 3.63627,0.7915 h 9.96437 c 1.74162,0 2.53563,-0.15775 3.08537,-0.71137 0.55475,-0.55525 0.87213,-2.13775 0.87213,-7.51513 h 7.99075"
           id="path3049-5"
           style="fill:#333c46;fill-opacity:1;fill-rule:nonzero;stroke:none" />
        <path
           d="m 395.91147,111.75232 h 19.45601 c 0,-7.19625 -0.476,-8.77875 -1.18363,-9.49112 -0.478,-0.47363 -1.1875,-0.78863 -3.63763,-0.78863 h -9.81099 c -2.45076,0 -3.08351,0.23738 -3.71738,0.86863 -0.71238,0.71387 -1.02537,2.13387 -1.10638,9.41112 z m 0,6.5665 c 0.081,8.38225 0.55225,10.04338 1.1875,10.67625 0.63376,0.63375 1.1855,0.7925 3.63626,0.7925 h 11.07324 c 1.82076,0 2.37538,-0.3165 2.851,-0.7925 0.54988,-0.55375 0.70801,-1.5025 0.87013,-5.29887 h 7.98537 c -0.15724,6.64262 -0.791,9.01612 -2.92775,11.15382 -1.34325,1.34473 -3.16212,2.13379 -6.95799,2.13379 h -13.84088 c -4.19287,0 -6.72363,-0.7124 -8.46388,-2.45019 -2.77049,-2.77005 -3.55662,-6.0923 -3.55662,-18.9038 0,-12.8135 0.78613,-16.137245 3.55662,-18.90387 1.74025,-1.73975 4.27101,-2.449625 8.46388,-2.449625 h 11.70462 c 4.19438,0 6.88138,0.787625 8.46588,2.370125 2.76512,2.7685 3.55612,6.09225 3.55612,18.58838 v 2.13525 c 0,0.62987 -0.23637,0.94875 -0.95075,0.94875 h -26.65275"
           id="path3051-2"
           style="fill:#333c46;fill-opacity:1;fill-rule:nonzero;stroke:none" />
        <path
           d="m 455.71123,128.68007 c -0.71038,0.711 -1.74313,1.02738 -4.34813,1.02738 h -6.17338 c -2.53174,0 -4.73137,-0.71388 -7.75137,-2.25 -0.18412,-0.0937 -0.35987,-0.18113 -0.55275,-0.27875 v -23.25637 c 3.165,-1.58113 5.37838,-2.37113 7.99075,-2.37113 h 6.48675 c 2.605,0 3.63775,0.31637 4.34813,1.02738 1.18512,1.185 1.50249,3.47749 1.50249,13.05124 0,9.57275 -0.31737,11.86275 -1.50249,13.05025 z m -2.37688,-34.487745 h -5.76913 c -3.562,0 -5.30124,0.793875 -10.67962,5.222625 v -5.138625 h -8.22463 V 146.4262 c 2.96238,0 8.22463,0 8.22463,0 v -14.5025 c 5.37838,4.34771 7.11762,5.13872 10.67962,5.13872 h 5.76913 c 4.59225,0 6.88475,-0.79101 8.7035,-2.60741 2.29162,-2.29494 3.401,-5.53756 3.401,-18.82518 0,-13.28863 -1.10938,-16.533755 -3.401,-18.824755 -1.81875,-1.818875 -4.11125,-2.61275 -8.7035,-2.61275"
           id="path3053-7"
           style="fill:#333c46;fill-opacity:1;fill-rule:nonzero;stroke:none" />
        <path
           d="m 504.98885,96.64645 c -1.5825,-1.5825 -3.6375,-2.454125 -7.35625,-2.454125 h -6.72125 c -3.56,0 -5.29875,0.793875 -10.68,5.222625 V 83.1362 c -2.5525,-1.401375 -5.2175,-2.42875 -8.16625,-3.061125 -0.0212,0.001 -0.037,0.01375 -0.0589,0.021 v 56.887735 h 8.22512 v -33.06148 c 0.6025,-0.30126 1.165,-0.56351 1.7075,-0.80713 2.30875,-1.03662 4.16875,-1.564 6.28125,-1.564 h 5.5375 c 2.7675,0 3.55875,0.31638 4.42875,1.1875 0.79125,0.79 1.10625,2.05375 1.10625,4.11138 v 30.13373 h 8.23 v -30.68749 c 0,-5.93262 -0.8725,-7.988745 -2.53375,-9.64987"
           id="path3055-0"
           style="fill:#333c46;fill-opacity:1;fill-rule:nonzero;stroke:none" />
        <g
           id="text4224"
           style="font-style:normal;font-weight:normal;font-size:82.85315704px;line-height:125%;font-family:sans-serif;letter-spacing:0px;word-spacing:0px;fill:#333c46;fill-opacity:1;stroke:none;stroke-width:1px;stroke-linecap:butt;stroke-linejoin:miter;stroke-opacity:1">
          <path
             id="path4143"
             style="font-style:normal;font-variant:normal;font-weight:500;font-stretch:normal;font-family:'Apex Sans Book';-inkscape-font-specification:'Apex Sans Book, Medium';letter-spacing:-4.94333315px;fill:#333c46;fill-opacity:1"
             d="m 552.52846,100.55272 q -2.73416,-0.828527 -7.12537,-0.828527 -3.72839,0 -5.96543,1.408507 -2.15418,1.4085 -3.39698,3.72839 -1.15994,2.31989 -1.49136,5.3026 -0.33141,2.89986 -0.33141,5.96543 0,3.06556 0.33141,6.04828 0.33142,2.89986 1.49136,5.21975 1.2428,2.31989 3.39698,3.72839 2.23704,1.4085 5.96543,1.4085 3.81124,0 6.37969,-0.57997 2.56845,-0.66282 5.21975,-2.07133 v -27.50725 q -1.07709,-0.57997 -2.23704,-0.99423 -1.07709,-0.41427 -2.23703,-0.82854 z m -7.12537,-5.965423 q 5.71687,0 11.59944,3.39698 V 74.702539 h 5.79972 v 62.139871 h -3.23127 l -1.2428,-3.39698 q -3.23127,2.07133 -6.37969,3.14842 -3.14842,1.07709 -6.5454,1.07709 -4.97119,0 -8.28532,-1.65706 -3.31412,-1.73992 -5.21975,-4.63978 -1.90562,-2.89986 -2.73415,-6.79396 -0.74568,-3.97695 -0.74568,-8.45102 0,-4.47407 0.74568,-8.36817 0.82853,-3.97695 2.73415,-6.87681 1.90563,-2.899863 5.21975,-4.556927 3.31413,-1.739916 8.28532,-1.739916 z" />
          <path
             id="path4145"
             style="font-style:normal;font-variant:normal;font-weight:500;font-stretch:normal;font-family:'Apex Sans Book';-inkscape-font-specification:'Apex Sans Book, Medium';letter-spacing:-4.94333315px;fill:#333c46;fill-opacity:1"
             d="m 583.99521,115.88056 q -2.65131,0.24856 -4.30837,1.07709 -1.57421,0.74568 -2.48559,1.90562 -0.91139,1.15995 -1.2428,2.56845 -0.24856,1.4085 -0.24856,2.89986 0,1.4085 0.24856,2.89986 0.33141,1.4085 1.2428,2.6513 0.99423,1.15995 2.73415,1.90562 1.73992,0.74568 4.72263,0.74568 3.39698,0 5.79972,-0.82853 2.40274,-0.91138 5.05404,-2.48559 v -14.41645 z m 11.51658,-7.45679 q 0,-2.23703 -0.49711,-3.89409 -0.41427,-1.65707 -1.57421,-2.73416 -1.0771,-1.07709 -2.98272,-1.57421 -1.90562,-0.497117 -4.80548,-0.497117 -4.22551,0 -7.12537,0.662827 -2.89986,0.57997 -5.30261,1.4085 v -4.971188 q 2.73416,-1.159944 6.04829,-1.657063 3.39697,-0.579972 6.37969,-0.579972 4.63978,0 7.62249,0.994238 3.06557,0.994238 4.80548,2.899861 1.82277,1.822764 2.4856,4.391214 0.74568,2.56845 0.74568,5.63402 v 28.33578 h -3.23128 l -1.2428,-3.31413 q -2.817,2.07133 -6.04828,3.14842 -3.14842,0.99424 -6.29684,0.99424 -4.0598,0 -6.87681,-1.07709 -2.81701,-1.15995 -4.55692,-2.98272 -1.73992,-1.82277 -2.4856,-4.22551 -0.74567,-2.40274 -0.74567,-5.05404 0,-2.31989 0.57997,-4.47407 0.57997,-2.15418 2.15418,-3.8941 1.57421,-1.73991 4.39122,-2.89986 2.89986,-1.2428 7.45678,-1.65706 l 11.10232,-0.66283 z" />
          <path
             id="path4147"
             style="font-style:normal;font-variant:normal;font-weight:500;font-stretch:normal;font-family:'Apex Sans Book';-inkscape-font-specification:'Apex Sans Book, Medium';letter-spacing:-4.94333315px;fill:#333c46;fill-opacity:1"
             d="m 612.55691,95.415829 11.59945,33.969791 11.59944,-33.969791 h 6.62825 L 618.52234,157.5557 h -6.21399 l 9.36241,-21.79038 -15.7421,-40.349491 z" />
          <path
             id="path4149"
             style="font-style:normal;font-variant:normal;font-weight:500;font-stretch:normal;font-family:'Apex Sans Book';-inkscape-font-specification:'Apex Sans Book, Medium';letter-spacing:-4.94333315px;fill:#333c46;fill-opacity:1"
             d="m 651.34063,106.84956 q 0,1.40851 0.33141,2.4856 0.41427,0.99424 1.40851,1.73992 0.99423,0.74567 2.817,1.24279 1.90563,0.49712 4.88834,0.74568 4.39122,0.41427 7.20822,1.4085 2.89986,0.91139 4.47407,2.40275 1.65707,1.49135 2.23704,3.47983 0.66282,1.98847 0.66282,4.55692 0,2.40274 -0.82853,4.72263 -0.82853,2.23704 -2.817,4.05981 -1.90563,1.82277 -5.1369,2.89986 -3.14842,1.07709 -7.87105,1.07709 -1.49136,0 -3.23127,-0.16571 -1.73992,-0.1657 -3.47984,-0.49712 -1.65706,-0.24856 -3.14842,-0.57997 -1.49135,-0.41426 -2.48559,-0.82853 v -4.97119 q 1.90562,0.66283 4.88834,1.32565 3.06556,0.57997 7.53963,0.57997 3.23128,0 5.30261,-0.57997 2.15418,-0.66282 3.39697,-1.73992 1.2428,-1.07709 1.73992,-2.40274 0.49712,-1.32565 0.49712,-2.817 0,-1.40851 -0.33141,-2.56845 -0.24856,-1.2428 -1.2428,-2.15418 -0.99424,-0.91139 -2.89986,-1.49136 -1.82277,-0.66283 -4.88834,-0.91139 -4.47407,-0.41426 -7.37393,-1.32565 -2.817,-0.99423 -4.39121,-2.40274 -1.57421,-1.49135 -2.15419,-3.31412 -0.57997,-1.82277 -0.57997,-3.97696 0,-2.23703 0.74568,-4.39121 0.82853,-2.23704 2.56845,-3.976954 1.82277,-1.739917 4.80548,-2.817008 2.98271,-1.077091 7.37393,-1.077091 2.89986,0 6.04828,0.497119 3.14842,0.414266 5.88258,1.57421 v 4.971194 q -2.40275,-0.82854 -5.1369,-1.32566 -2.73415,-0.579967 -6.87681,-0.579967 -3.06557,0 -5.05404,0.579967 -1.90563,0.49712 -2.98272,1.49136 -1.07709,0.91139 -1.49135,2.23704 -0.41427,1.32565 -0.41427,2.817 z" />
        </g>
      </g>
      <path
         id="path3043-5"
         d="m -21.447878,-46.392771 c -12.206725,0 -24.049593,2.389814 -35.206396,7.108108 -10.769663,4.557476 -20.444301,11.075591 -28.743271,19.381506 -8.308245,8.300946 -14.826905,17.9745025 -19.386695,28.7406977 -4.71779,11.1591043 -7.10291,23.0113033 -7.10291,35.2115573 0,6.971314 0.7895,13.919134 2.36763,20.653398 1.53305,6.551906 3.80716,12.943839 6.761,18.995555 5.446263,11.15115 14.275095,22.268569 24.259275,30.590239 6.511599,-3.55975 10.206153,-7.48441 10.991134,-11.68277 0.756315,-4.032639 -1.014116,-8.376217 -5.57458,-13.656668 -10.82155,-12.416303 -16.780737,-28.357533 -16.780737,-44.899754 0,-37.7231231 30.687286,-68.420724 68.41555,-68.420724 0.06449,0 0.310839,0.0052 0.310839,0.0052 0,0 0.241531,-0.0052 0.303091,-0.0052 37.726945,0 68.418126,30.6976009 68.418126,68.420724 0,16.542221 -5.957784,32.483577 -16.775544,44.89454 -4.526815,5.24565 -6.34327,9.773638 -5.556468,13.843192 0.816034,4.20287 4.502757,8.07239 10.957485,11.50665 9.997748,-8.32366 18.820967,-19.439819 24.267044,-30.595429 2.95765,-6.051716 5.231726,-12.443649 6.763579,-18.995555 1.573333,-6.734264 2.372824,-13.682084 2.372824,-20.653398 0,-12.200254 -2.392423,-24.052453 -7.110704,-35.2115573 C 57.944944,-1.9286545 51.42185,-11.602211 43.120891,-19.903157 34.818111,-28.209072 25.143954,-34.727187 14.377579,-39.284663 3.219352,-44.002957 -8.627244,-46.392771 -20.833948,-46.392771 h -0.310859 z m -0.03371,36.5792966 c -2.547644,0 -5.097884,0.1729558 -7.587338,0.5310372 -7.350979,1.0477732 -14.562693,3.671865 -20.855458,7.5976965 -6.006468,3.7451221 -11.350677,8.7741627 -15.449249,14.5452007 -4.236685,5.965008 -7.277169,12.898537 -8.781529,20.047246 -1.634663,7.753866 -1.532188,15.924752 0.297899,23.627212 1.683722,7.08407 4.875114,13.905042 9.229664,19.720839 1.167012,1.566695 2.473248,2.995801 3.851953,4.509939 0.459233,0.498661 0.927324,1.011582 1.398827,1.536124 0.01256,0.01675 0.0268,0.02492 0.03601,0.03874 0.05507,0.0557 0.128566,0.124796 0.199549,0.209767 4.799524,5.577218 7.23504,11.585067 7.23504,17.847973 0,9.46477 -5.255952,18.14784 -13.524561,22.59624 4.809785,2.66949 9.871361,4.89907 15.068453,6.64182 1.726501,0.57827 3.482213,1.10673 5.242991,1.57756 1.052267,-0.66115 4.639488,-3.33129 8.14689,-8.18056 3.354024,-4.63373 7.306965,-12.31996 7.097743,-22.61435 -0.122912,-6.195609 -1.370371,-12.229883 -3.696523,-17.925658 -2.310761,-5.646904 -5.620562,-10.821633 -9.848788,-15.374141 l -0.01884,-0.03371 c -0.316639,-0.361427 -0.621824,-0.7212 -0.935134,-1.077644 -1.593685,-1.848513 -3.23932,-3.755885 -4.559145,-5.989046 -1.615755,-2.745412 -2.793739,-5.631053 -3.491886,-8.582044 -1.086062,-4.55747 -1.143561,-9.394098 -0.181122,-13.98306 0.89824,-4.219285 2.684417,-8.308414 5.188612,-11.833048 2.424648,-3.415204 5.590159,-6.394908 9.146768,-8.613136 3.711473,-2.31604 7.971253,-3.866359 12.307084,-4.481426 1.46422,-0.210546 2.979678,-0.318622 4.496978,-0.318622 h 0.323779 0.326396 c 1.520441,0 3.03326,0.108066 4.50215,0.318622 4.338322,0.615067 8.596993,2.165386 12.3044886,4.481426 3.55727834,2.218228 6.7175544,5.197932 9.1441714,8.613136 2.504886,3.524634 4.298182,7.613763 5.188612,11.833048 0.965035,4.588962 0.902134,9.42559 -0.176097,13.98306 -0.700806,2.950991 -1.878015,5.836632 -3.497058,8.582044 -1.313208,2.233161 -2.960748,4.140533 -4.553973,5.989046 -0.314001,0.356444 -0.62172,0.716217 -0.932559,1.077644 l -0.02596,0.03371 c -4.2211073,4.552508 -7.535619,9.727237 -9.846171,15.374141 -2.327659,5.695775 -3.569675,11.730049 -3.699119,17.925658 -0.206458,10.29439 3.74508,17.98062 7.1029357,22.61435 3.5002623,4.84927 7.0906033,7.51941 8.1416553,8.18056 1.759522,-0.47083 3.524949,-0.99929 5.250801,-1.57756 5.197072,-1.74275 10.259276,-3.97233 15.07105,-6.64182 -8.277717,-4.4484 -13.532329,-13.13147 -13.532329,-22.59624 0,-6.17804 2.365014,-12.015697 7.229847,-17.837608 0.0668,-0.09255 0.14427,-0.164581 0.199549,-0.220111 0.01675,-0.01466 0.02785,-0.02659 0.04397,-0.03874 0.472677,-0.524542 0.937794,-1.037463 1.39108,-1.536124 1.383982,-1.514138 2.685569,-2.943244 3.854549,-4.509939 4.360351,-5.815797 7.546612,-12.636769 9.234816,-19.720839 1.824998,-7.70246 1.929191,-15.873346 0.300474,-23.627191 C 30.370047,25.759018 27.330296,18.825491 23.096249,12.860483 18.997007,7.0894451 13.653467,2.0604044 7.647021,-1.6847176 1.353585,-5.6105513 -5.857417,-8.234641 -13.211055,-9.2824121 c -2.486146,-0.3581002 -5.0416,-0.5310372 -7.589914,-0.5310372 h -0.3238 -0.357512 z m 0.339337,36.8642384 c -9.843595,0 -17.855743,8.010619 -17.855743,17.85836 0,9.846066 8.012148,17.855743 17.855743,17.855743 9.843574,0 17.8531676,-8.009677 17.8531676,-17.855743 0,-9.847741 -8.0095936,-17.85836 -17.8531676,-17.85836 z"
         style="fill:#f0424d;fill-opacity:1;fill-rule:nonzero;stroke:none" />
    </g>
  </g>
  <text
     id="text826"
     y="93.622169"
     x="111.11112"
     style="font-style:normal;font-variant:normal;font-weight:normal;font-stretch:normal;font-size:20px;line-height:23.4375px;font-family:ApexSansBoldT;-inkscape-font-specification:'ApexSansBoldT, Normal';font-variant-ligatures:normal;font-variant-caps:normal;font-variant-numeric:normal;font-feature-settings:normal;text-align:start;letter-spacing:0px;word-spacing:0px;writing-mode:lr-tb;text-anchor:start;fill:#333c46;fill-opacity:1;stroke:none;stroke-width:0.9375px;stroke-linecap:butt;stroke-linejoin:miter;stroke-opacity:1"
     xml:space="preserve"><tspan
       style="font-style:normal;font-variant:normal;font-weight:normal;font-stretch:normal;font-size:26.25px;font-family:ApexSansBoldT;-inkscape-font-specification:'ApexSansBoldT, Normal';font-variant-ligatures:normal;font-variant-caps:normal;font-variant-numeric:normal;font-feature-settings:normal;text-align:start;writing-mode:lr-tb;text-anchor:start;fill:#333c46;fill-opacity:1;stroke-width:0.9375px"
       y="93.622169"
       x="111.11112"
       id="tspan824">Germany '18</tspan></text>
</svg>
