<?xml version="1.0" encoding="UTF-8" standalone="no"?>
<svg
   xmlns:dc="http://purl.org/dc/elements/1.1/"
   xmlns:cc="http://creativecommons.org/ns#"
   xmlns:rdf="http://www.w3.org/1999/02/22-rdf-syntax-ns#"
   xmlns:svg="http://www.w3.org/2000/svg"
   xmlns="http://www.w3.org/2000/svg"
   id="svg43"
   version="1.2"
   viewBox="0 0 1024 767.99999"
   height="768pt"
   width="1024pt">
  <metadata
     id="metadata47">
    <rdf:RDF>
      <cc:Work
         rdf:about="">
        <dc:format>image/svg+xml</dc:format>
        <dc:type
           rdf:resource="http://purl.org/dc/dcmitype/StillImage" />
        <dc:title></dc:title>
      </cc:Work>
    </rdf:RDF>
  </metadata>
  <defs
     id="defs8">
    <clipPath
       id="clip1">
      <path
         id="path2"
         d="m 3,68 h 114 v 58.19141 H 3 Z m 0,0" />
    </clipPath>
    <clipPath
       id="clip2">
      <path
         id="path5"
         d="m 386,90 h 7.05078 v 8 H 386 Z m 0,0" />
    </clipPath>
  </defs>
  <g
     transform="matrix(2.5703292,0,0,2.5703292,5.828331,224.08753)"
     id="surface505">
    <g
       style="clip-rule:nonzero"
       id="g12"
       clip-path="url(#clip1)">
      <path
         id="path10"
         d="m 116.07031,97.390625 c -2.43359,-0.558594 -5.01172,-0.910156 -7.62109,-0.910156 -4.46484,0 -8.527345,0.769531 -11.519532,2.019531 -0.332032,0.164062 -0.566407,0.507812 -0.566407,0.902344 0,0.144531 0.03906,0.289062 0.08984,0.410156 0.355469,1.02734 -0.226563,2.13672 -3.125,2.77734 -4.296875,0.94141 -7.011719,5.37891 -8.5625,6.85157 -1.824219,1.73047 -6.972656,2.79297 -6.199219,1.76172 0.609375,-0.80469 2.925782,-3.32422 4.335938,-6.04297 1.257812,-2.4336 2.382812,-3.125 3.929687,-5.445316 0.449219,-0.675782 2.210938,-3.066406 2.722657,-4.960938 0.574218,-1.84375 0.378906,-4.160156 0.601562,-5.113281 0.316406,-1.375 1.613281,-4.359375 1.710938,-6.042969 0.05469,-0.957031 -3.980469,1.359375 -5.894532,1.359375 -1.914062,0 -3.777344,-1.148437 -5.488281,-1.230469 -2.117187,-0.09766 -3.476563,1.632813 -5.394531,1.332032 -1.09375,-0.175782 -2.015625,-1.140625 -3.925782,-1.210938 -2.722656,-0.101562 -6.046874,1.511719 -12.292968,1.3125 -6.144532,-0.203125 -11.820313,-7.765625 -12.59375,-8.96875 -0.910156,-1.410156 -2.019532,-1.410156 -3.226563,-0.300781 -1.210937,1.105469 -2.699219,0.234375 -3.125,-0.507813 -0.804687,-1.410156 -2.960937,-5.53125 -6.296875,-6.394531 -4.613281,-1.195312 -6.953125,2.554688 -6.648437,5.539063 0.308593,3.03125 2.265625,3.878906 3.175781,5.492187 0.902344,1.609375 1.367188,2.648438 3.074219,3.359375 1.210937,0.507813 1.660156,1.253906 1.300781,2.246094 -0.316406,0.863281 -1.574219,1.0625 -2.402344,1.101562 -1.757812,0.08594 -2.992187,-0.390624 -3.890625,-0.964843 -1.042969,-0.667969 -1.894531,-1.59375 -2.808593,-3.164063 -1.054688,-1.734375 -2.71875,-2.492187 -4.652344,-2.492187 -0.925782,0 -1.789063,0.246093 -2.558594,0.640625 -3.035156,1.582031 -6.648438,2.515625 -10.539062,2.515625 l -4.386719,0.0039 c 8.414062,24.953121 32.011719,42.925781 59.804687,42.925781 22.203125,0 41.726568,-11.46485 52.972658,-28.800781"
         style="fill:#ffffff;fill-opacity:1;fill-rule:nonzero;stroke:none" />
    </g>
    <path
       id="path14"
       d="M 125.55859,93.601562 V 92.59375 h 0.67188 c 0.33984,0 0.70703,0.07422 0.70703,0.476562 0,0.5 -0.37109,0.53125 -0.78906,0.53125 z m 0,0.417969 h 0.56641 l 0.85938,1.410157 h 0.55468 l -0.92968,-1.433594 c 0.48046,-0.05859 0.84375,-0.3125 0.84375,-0.890625 0,-0.648438 -0.37891,-0.929688 -1.14844,-0.929688 h -1.23828 v 3.253907 h 0.49218 v -1.410157"
       style="fill:#0c0c0a;fill-opacity:1;fill-rule:nonzero;stroke:none" />
    <path
       id="path16"
       d="m 126.14063,91.183594 c -1.44922,0 -2.625,1.175781 -2.625,2.625 0,1.449218 1.17578,2.617187 2.625,2.617187 1.44921,0 2.62109,-1.167969 2.62109,-2.617187 0,-1.449219 -1.17188,-2.625 -2.62109,-2.625 z m 3.18749,2.625 c 0,1.757812 -1.42578,3.1875 -3.18749,3.1875 -1.76172,0 -3.19141,-1.429688 -3.19141,-3.1875 0,-1.761719 1.42969,-3.191406 3.19141,-3.191406 1.76171,0 3.18749,1.429687 3.18749,3.191406"
       style="fill:#0c0c0a;fill-opacity:1;fill-rule:nonzero;stroke:none" />
    <path
       id="path18"
       d="m 116.07031,97.394531 c -2.43359,-0.5625 -5.01172,-0.910156 -7.62109,-0.910156 -4.46484,0 -8.527345,0.773437 -11.519532,2.015625 -0.332032,0.167969 -0.566407,0.511719 -0.566407,0.902344 0,0.144531 0.03906,0.292968 0.08984,0.410156 0.355469,1.02734 -0.226563,2.14063 -3.125,2.77734 -4.296875,0.94532 -7.011719,5.37891 -8.5625,6.85157 -1.824219,1.73047 -6.972656,2.79687 -6.199219,1.76562 0.609375,-0.80859 2.925782,-3.32422 4.335938,-6.04687 1.257812,-2.42969 2.382812,-3.1211 3.929687,-5.44141 0.449219,-0.679688 2.210938,-3.070312 2.722657,-4.960938 0.574218,-1.847656 0.378906,-4.160156 0.601562,-5.117187 0.316406,-1.371094 1.613281,-4.359375 1.710938,-6.042969 0.05469,-0.949218 -3.980469,1.359375 -5.894532,1.359375 -1.914062,0 -3.777344,-1.144531 -5.488281,-1.226562 -2.117187,-0.101563 -3.476563,1.632812 -5.394531,1.328125 C 73.99609,84.882812 73.074215,83.921875 71.164058,83.851562 68.441406,83.75 65.117188,85.363281 58.871094,85.160156 52.726562,84.964844 47.050781,77.398438 46.277344,76.195312 45.367188,74.78125 44.257812,74.78125 43.050781,75.894531 c -1.210937,1.101563 -2.699219,0.234375 -3.125,-0.507812 -0.804687,-1.410157 -2.960937,-5.535157 -6.296875,-6.398438 -4.613281,-1.195312 -6.953125,2.554688 -6.648437,5.539063 0.308593,3.03125 2.265625,3.878906 3.175781,5.492187 0.902344,1.609375 1.367188,2.652344 3.074219,3.367188 1.210937,0.5 1.660156,1.25 1.300781,2.242187 -0.316406,0.863282 -1.574219,1.0625 -2.402344,1.101563 -1.757812,0.08203 -2.992187,-0.394531 -3.890625,-0.96875 -1.042969,-0.664063 -1.894531,-1.589844 -2.808593,-3.164063 -1.054688,-1.734375 -2.71875,-2.488281 -4.652344,-2.488281 -0.925782,0 -1.789063,0.246094 -2.558594,0.640625 -3.035156,1.578125 -6.648438,2.515625 -10.539062,2.515625 H 3.292969 C 1.15625,76.933594 0,70.148438 0,63.09375 0,28.246094 28.25,-0.00390625 63.097656,-0.00390625 c 34.847656,0 63.097654,28.25000025 63.097654,63.09765625 0,12.648438 -3.71875,24.421875 -10.125,34.300781"
       style="fill:#0c0c0a;fill-opacity:1;fill-rule:nonzero;stroke:none" />
    <path
       id="path20"
       d="m 158.35937,67.074219 c 0,-5.785157 -0.12109,-10.042969 -0.35546,-13.890625 h 9.46484 l 0.40625,8.210937 h 0.30859 c 2.12891,-6.085937 7.16797,-9.1875 11.83594,-9.1875 1.06641,0 1.6875,0.03906 2.5625,0.234375 v 10.296875 c -1.02344,-0.199219 -1.98047,-0.308593 -3.29297,-0.308593 -5.21094,0 -8.82422,3.3125 -9.80078,8.265624 -0.18359,0.964844 -0.28125,2.121094 -0.28125,3.296876 v 22.417968 h -10.9375 l 0.0898,-29.335937"
       style="fill:#0c0c0a;fill-opacity:1;fill-rule:nonzero;stroke:none" />
    <path
       id="path22"
       d="m 214.78516,70.125 c 0.0508,-4.007812 -1.69141,-10.535156 -9.01172,-10.535156 -6.73047,0 -9.52735,6.105468 -10.01953,10.535156 z m -19.00782,7.613281 C 196.06641,85.570312 202.12891,89 209.12891,89 c 5.02343,0 8.625,-0.789062 11.92968,-2.003906 l 1.61719,7.519531 c -3.69922,1.570313 -8.83203,2.742187 -15.10937,2.742187 -14.03516,0 -22.25782,-8.667968 -22.25782,-21.914062 0,-11.929688 7.23828,-23.21875 21.14063,-23.21875 14.05859,0 18.63281,11.558594 18.63281,21.023438 0,2.03125 -0.18359,3.660156 -0.39062,4.667968 l -28.91407,-0.07813"
       style="fill:#0c0c0a;fill-opacity:1;fill-rule:nonzero;stroke:none" />
    <path
       id="path24"
       d="m 272.17187,36.535156 -10.92578,-3.082031 v 24.382813 h -0.17968 c -1.92969,-3.191407 -6.19532,-5.628907 -12.11329,-5.628907 -10.39453,0 -19.44531,8.601563 -19.3789,23.085938 0,13.285156 8.17578,22.089843 18.5,22.089843 6.23828,0 11.45312,-2.972656 14.03515,-7.816406 h 0.19532 l 0.48828,6.84375 h 9.73828 c -0.19922,-2.9375 -0.35938,-7.699218 -0.35938,-12.121094 z m -10.92578,41.132813 c 0,1.144531 -0.0781,2.210937 -0.32812,3.1875 -1.10156,4.730469 -4.96875,7.78125 -9.44141,7.78125 -6.8789,0 -10.82031,-5.804688 -10.82031,-13.746094 0,-8.019531 3.90625,-14.226563 10.94531,-14.226563 4.91406,0 8.4336,3.464844 9.40235,7.675782 0.18359,0.882812 0.24218,1.976562 0.24218,2.851562 v 6.476563"
       style="fill:#0c0c0a;fill-opacity:1;fill-rule:nonzero;stroke:none" />
    <path
       id="path26"
       d="m 301.07422,52.15625 c -3.29297,0 -6.23828,0.949219 -8.71875,2.480469 -2.57031,1.503906 -4.66406,3.832031 -5.91016,6.238281 h -0.17187 V 40.644531 l -4.28125,-1.265625 v 57.03125 h 4.28125 V 69.953125 c 0,-1.757813 0.13281,-2.976563 0.58203,-4.261719 1.84765,-5.378906 6.91797,-9.796875 13.04687,-9.796875 8.85938,0 11.92578,7.101563 11.92578,14.894531 v 25.621094 h 4.27735 v -26.09375 c 0,-16.113281 -10.92969,-18.160156 -15.03125,-18.160156"
       style="fill:#0c0c0a;fill-opacity:1;fill-rule:nonzero;stroke:none" />
    <path
       id="path28"
       d="m 350.22656,73.289062 c -9.42187,-0.273437 -21.86328,1.15625 -21.86328,11.542969 0,6.214844 4.10547,9.011719 8.61328,9.011719 7.20703,0 11.3086,-4.464844 12.80078,-8.675781 0.3125,-0.921875 0.44922,-1.851563 0.44922,-2.589844 z m 4.27735,12.847657 c 0,3.417969 0.13671,6.960937 0.6289,10.273437 h -3.9414 l -0.62891,-6.199218 h -0.20313 c -2.09375,3.335937 -6.91796,7.183593 -13.79296,7.183593 -8.70704,0 -12.75391,-6.121093 -12.75391,-11.890625 0,-9.984375 8.8125,-16 26.41406,-15.816406 v -1.15625 c 0,-4.277344 -0.83203,-12.816406 -11.0664,-12.746094 -3.78907,0 -7.73047,1.011719 -10.85938,3.222656 l -1.36328,-3.113281 c 3.95312,-2.679687 8.77734,-3.738281 12.69141,-3.738281 12.48437,0 14.875,9.371094 14.875,17.101562 v 16.878907"
       style="fill:#0c0c0a;fill-opacity:1;fill-rule:nonzero;stroke:none" />
    <path
       id="path30"
       d="m 371.53906,43.613281 v 9.53125 h 12.33203 v 3.472657 h -12.33203 v 28.117187 c 0,5.503906 1.71094,8.949219 6.35547,8.949219 2.23047,0 3.80859,-0.292969 4.91797,-0.675782 l 0.51562,3.3125 c -1.39453,0.585938 -3.35546,1.039063 -5.96875,1.039063 -3.15625,0 -5.77343,-0.992187 -7.46484,-3.066406 -1.96094,-2.273438 -2.62891,-5.90625 -2.62891,-10.320313 V 56.617188 h -7.30078 v -3.472657 h 7.30078 v -7.953125 l 4.27344,-1.578125"
       style="fill:#0c0c0a;fill-opacity:1;fill-rule:nonzero;stroke:none" />
    <path
       id="path32"
       d="m 389.27734,93.6875 v -1.007812 h 0.67188 c 0.33984,0 0.71094,0.07422 0.71094,0.476562 0,0.5 -0.3711,0.53125 -0.79297,0.53125 z m 0,0.421875 h 0.57032 l 0.85546,1.40625 h 0.55469 l -0.92578,-1.4375 c 0.48047,-0.05859 0.84766,-0.308594 0.84766,-0.890625 0,-0.644531 -0.38672,-0.925781 -1.15235,-0.925781 h -1.24218 v 3.253906 h 0.49218 v -1.40625"
       style="fill:#0c0c0a;fill-opacity:1;fill-rule:nonzero;stroke:none" />
    <g
       style="clip-rule:nonzero"
       id="g36"
       clip-path="url(#clip2)">
      <path
         id="path34"
         d="m 389.85937,91.265625 c -1.45312,0 -2.625,1.175781 -2.625,2.628906 0,1.445313 1.17188,2.617188 2.625,2.617188 1.44922,0 2.625,-1.171875 2.625,-2.617188 0,-1.453125 -1.17578,-2.628906 -2.625,-2.628906 z m 3.19141,2.625 c 0,1.757813 -1.42969,3.1875 -3.19141,3.1875 -1.7539,0 -3.1875,-1.429687 -3.1875,-3.1875 0,-1.757813 1.4336,-3.1875 3.1875,-3.1875 1.76172,0 3.19141,1.429687 3.19141,3.1875"
         style="fill:#0c0c0a;fill-opacity:1;fill-rule:nonzero;stroke:none" />
    </g>
    <path
       id="path38"
       d="m 76.996094,91.605469 c 0.324218,0.316406 0.882812,1.382812 0.199218,2.734375 -0.382812,0.714844 -0.796874,1.21875 -1.535156,1.808594 -0.886718,0.710937 -2.625,1.53125 -5.003906,0.02344 -1.277344,-0.8125 -1.355469,-1.085937 -3.121094,-0.855469 -1.261718,0.164063 -1.761718,-1.109375 -1.3125,-2.167968 0.457032,-1.054688 2.320313,-1.910157 4.636719,-0.550782 1.042969,0.609375 2.667969,1.90625 4.09375,0.757813 0.589844,-0.472657 0.941406,-0.785157 1.761719,-1.734375 0.03516,-0.03906 0.08594,-0.0625 0.144531,-0.0625 0.05078,0 0.101563,0.01953 0.136719,0.04687"
       style="fill:#0c0c0a;fill-opacity:1;fill-rule:nonzero;stroke:none" />
    <path
       id="path40"
       d="m 98.703125,46.308594 c -0.625,2.09375 -1.507813,4.773437 -5.453125,6.800781 -0.578125,0.292969 -0.796875,-0.1875 -0.53125,-0.640625 1.492188,-2.539062 1.757812,-3.171875 2.191406,-4.171875 C 95.515625,46.835938 95.832031,44.753906 94.625,40.414062 92.253906,31.875 87.304688,20.460938 83.703125,16.757812 c -3.46875,-3.574218 -9.761719,-4.578124 -15.449219,-3.121093 -2.09375,0.539062 -6.191406,2.667969 -13.789062,0.957031 -13.15625,-2.960938 -15.101563,3.625 -15.855469,6.492188 -0.757813,2.871093 -2.570313,11.023437 -2.570313,11.023437 -0.601562,3.320313 -1.394531,9.09375 19.027344,12.984375 9.515625,1.8125 9.996094,4.269531 10.417969,6.039062 0.753906,3.167969 1.960937,4.984376 3.320313,5.890626 1.359374,0.90625 0,1.65625 -1.507813,1.8125 -4.050781,0.417968 -19.023437,-3.875 -27.882813,-8.910157 -7.25,-4.429687 -7.371093,-8.417969 -5.710937,-11.800781 -10.949219,-1.183594 -19.164063,1.027344 -20.65625,6.210938 -2.554687,8.894531 19.558594,24.085937 44.738281,31.710937 26.421875,8 53.601564,2.414063 56.621094,-14.195313 1.37109,-7.542968 -4.98437,-13.125 -15.703125,-15.542968 z M 65.84375,18 c -0.01172,0 -0.02344,0.0039 -0.03125,0.0039 -0.113281,0 -0.207031,-0.08984 -0.207031,-0.191406 0,-0.07813 0.05078,-0.144531 0.117187,-0.175781 1.414063,-0.746094 3.519532,-1.339844 5.933594,-1.585938 0.722656,-0.07422 1.429688,-0.113281 2.113281,-0.117187 0.117188,0 0.238281,0 0.359375,0 4.042969,0.09375 7.28125,1.703125 7.234375,3.589844 C 81.316406,21.417969 78,22.875 73.953125,22.785156 c -1.308594,-0.03125 -2.539063,-0.21875 -3.59375,-0.523437 -0.125,-0.03516 -0.214844,-0.140625 -0.214844,-0.265625 0,-0.125 0.08984,-0.234375 0.214844,-0.265625 2.523437,-0.585938 4.226563,-1.539063 4.109375,-2.441407 -0.160156,-1.195312 -3.460938,-1.84375 -7.375,-1.453124 C 66.664062,17.882812 66.25,17.9375 65.84375,18 Z M 58.1875,30.042969 C 50.898438,30.570312 50.144531,31.359375 48.777344,32.8125 46.851562,34.863281 44.316406,30.152344 44.316406,30.152344 42.796875,29.832031 40.949219,27.375 41.945312,25.085938 42.925781,22.820312 44.738281,23.5 45.304688,24.203125 c 0.6875,0.859375 2.164062,2.265625 4.078124,2.214844 1.910157,-0.05078 4.117188,-0.449219 7.195313,-0.449219 3.121094,0 5.21875,1.164062 5.335937,2.164062 0.101563,0.855469 -0.253906,1.660157 -3.726562,1.910157"
       style="fill:#e61c30;fill-opacity:1;fill-rule:nonzero;stroke:none" />
  </g>
</svg>
