<?xml version="1.0" encoding="UTF-8" standalone="no"?>
<svg
   xmlns:dc="http://purl.org/dc/elements/1.1/"
   xmlns:cc="http://creativecommons.org/ns#"
   xmlns:rdf="http://www.w3.org/1999/02/22-rdf-syntax-ns#"
   xmlns:svg="http://www.w3.org/2000/svg"
   xmlns="http://www.w3.org/2000/svg"
   id="svg47"
   version="1.2"
   viewBox="0 0 1008.469 150.3352"
   height="150.33521pt"
   width="1008.469pt">
  <metadata
     id="metadata53">
    <rdf:RDF>
      <cc:Work
         rdf:about="">
        <dc:format>image/svg+xml</dc:format>
        <dc:type
           rdf:resource="http://purl.org/dc/dcmitype/StillImage" />
        <dc:title></dc:title>
      </cc:Work>
    </rdf:RDF>
  </metadata>
  <defs
     id="defs51" />
  <g
     transform="matrix(4.0405045,0,0,4.0405045,-60.134069,-60.118287)"
     id="surface511">
    <path
       id="path2"
       d="m 14.882812,39.527344 v -7.535156 h 7.53125 v 7.535156 h -7.53125"
       style="fill:#eb008a;fill-opacity:1;fill-rule:nonzero;stroke:none" />
    <path
       id="path4"
       d="m 37.855469,39.527344 v -7.535156 h 7.535156 v 7.535156 h -7.535156"
       style="fill:#eb008a;fill-opacity:1;fill-rule:nonzero;stroke:none" />
    <path
       id="path6"
       d="m 60.457031,39.527344 v -7.535156 h 7.535157 v 7.535156 h -7.535157"
       style="fill:#eb008a;fill-opacity:1;fill-rule:nonzero;stroke:none" />
    <path
       id="path8"
       d="m 83.058594,39.527344 v -7.535156 h 7.535156 v 7.535156 h -7.535156"
       style="fill:#eb008a;fill-opacity:1;fill-rule:nonzero;stroke:none" />
    <path
       id="path10"
       d="M 45.015625,14.878906 H 15.253906 l -0.371094,13.128906 1.972657,0.339844 c 0.367187,-3.867187 1.382812,-6.738281 3.046875,-8.609375 1.75,-1.960937 4.160156,-2.984375 7.257812,-3.074219 v 27.464844 c 0,2.398438 -0.335937,3.957032 -1.035156,4.671875 -0.59375,0.613281 -1.601562,0.992188 -3.019531,1.128907 -0.421875,0.03516 -1.136719,0.05469 -2.152344,0.05469 v 2.101563 h 18.367187 v -2.101563 c -1.015624,0 -1.734374,-0.01953 -2.152343,-0.05469 C 35.75,49.792969 34.742188,49.414062 34.148438,48.800781 33.449219,48.085938 33.109375,46.527344 33.109375,44.128906 V 16.664062 c 3.097656,0.08984 5.511719,1.113282 7.261719,3.074219 1.660156,1.871094 2.675781,4.742188 3.042968,8.609375 l 1.976563,-0.339844 -0.375,-13.128906"
       style="fill:#eb008a;fill-opacity:1;fill-rule:nonzero;stroke:none" />
    <path
       id="path12"
       d="m 135.80078,40.46875 v -9.417969 h 2.01953 v 7.664063 h 3.69922 v 1.753906 h -5.71875"
       style="fill:#eb008a;fill-opacity:1;fill-rule:nonzero;stroke:none" />
    <path
       id="path14"
       d="M 142.73047,40.46875 V 31.050781 H 144.75 v 9.417969 h -2.01953"
       style="fill:#eb008a;fill-opacity:1;fill-rule:nonzero;stroke:none" />
    <path
       id="path16"
       d="m 146.58984,40.46875 v -9.417969 h 5.69922 v 1.722657 h -3.70703 v 2.195312 h 3.21094 v 1.644531 h -3.21094 v 3.855469 h -1.99219"
       style="fill:#eb008a;fill-opacity:1;fill-rule:nonzero;stroke:none" />
    <path
       id="path18"
       d="m 153.50391,40.46875 v -9.417969 h 6.01171 v 1.722657 h -3.98828 v 2.015624 h 3.64453 v 1.644532 h -3.64453 v 2.308594 h 4.07032 v 1.726562 h -6.09375"
       style="fill:#eb008a;fill-opacity:1;fill-rule:nonzero;stroke:none" />
    <path
       id="path20"
       d="m 164.66797,40.46875 v -9.417969 h 2.01953 v 9.417969 h -2.01953"
       style="fill:#eb008a;fill-opacity:1;fill-rule:nonzero;stroke:none" />
    <path
       id="path22"
       d="m 168.08594,37.714844 h 2.03906 c 0.0547,0.367187 0.13672,0.640625 0.25391,0.820312 0.23828,0.371094 0.58203,0.554688 1.03515,0.554688 0.39844,0 0.71094,-0.125 0.92969,-0.375 0.19531,-0.210938 0.29297,-0.476563 0.29297,-0.800782 0,-0.363281 -0.15625,-0.671874 -0.46485,-0.921874 -0.14843,-0.121094 -0.33203,-0.230469 -0.55859,-0.324219 -0.0625,-0.02734 -0.29687,-0.113281 -0.69531,-0.257813 -0.77344,-0.269531 -1.33203,-0.542968 -1.67578,-0.8125 -0.6875,-0.542968 -1.03125,-1.253906 -1.03125,-2.132812 0,-0.753906 0.24218,-1.367188 0.71875,-1.84375 0.53515,-0.523438 1.27343,-0.785156 2.21484,-0.785156 1.17578,0 2.0625,0.402343 2.64844,1.207031 0.27734,0.378906 0.45703,0.875 0.54687,1.492187 h -1.97265 c -0.0469,-0.363281 -0.16407,-0.628906 -0.34766,-0.792968 -0.21875,-0.195313 -0.51562,-0.292969 -0.89062,-0.292969 -0.31641,0 -0.5625,0.07813 -0.74219,0.230469 -0.20703,0.167968 -0.3125,0.410156 -0.3125,0.722656 0,0.355468 0.15625,0.640625 0.46875,0.855468 0.23047,0.167969 0.6875,0.359376 1.36719,0.582032 0.79687,0.253906 1.41406,0.558594 1.85156,0.902344 0.63281,0.503906 0.94922,1.1875 0.94922,2.042968 0,0.855469 -0.29297,1.550782 -0.88282,2.082032 -0.60937,0.554687 -1.42578,0.828124 -2.44921,0.828124 -1.21875,0 -2.12891,-0.457031 -2.72657,-1.371093 -0.30078,-0.46875 -0.49218,-1.007813 -0.5664,-1.609375"
       style="fill:#eb008a;fill-opacity:1;fill-rule:nonzero;stroke:none" />
    <path
       id="path24"
       d="m 179.53906,40.46875 v -9.417969 h 5.69922 v 1.722657 h -3.70703 v 2.195312 h 3.21094 v 1.644531 h -3.21094 v 3.855469 h -1.99219"
       style="fill:#eb008a;fill-opacity:1;fill-rule:nonzero;stroke:none" />
    <path
       id="path26"
       d="m 189.99219,32.5625 c -0.60938,0 -1.08203,0.289062 -1.42188,0.875 -0.37109,0.632812 -0.55469,1.402344 -0.55469,2.304688 0,0.941406 0.1836,1.726562 0.54688,2.351562 0.16406,0.285156 0.41016,0.515625 0.73047,0.691406 0.23437,0.125 0.48437,0.1875 0.74609,0.1875 0.38281,0 0.72656,-0.132812 1.03516,-0.402344 0.30859,-0.265624 0.54687,-0.6875 0.71875,-1.269531 0.14062,-0.488281 0.21094,-1.003906 0.21094,-1.550781 0,-0.921875 -0.17579,-1.691406 -0.53516,-2.3125 -0.34375,-0.585938 -0.83203,-0.875 -1.47656,-0.875 z m 0.0898,-1.726562 c 1.08203,0 1.98828,0.40625 2.71094,1.214843 0.82422,0.914063 1.23437,2.152344 1.23437,3.710938 0,1.335937 -0.30859,2.449219 -0.93359,3.347656 -0.36719,0.527344 -0.83203,0.933594 -1.39063,1.214844 -0.5039,0.25 -1.0625,0.371093 -1.67578,0.371093 -1.33203,0 -2.37109,-0.539062 -3.12109,-1.621093 -0.60547,-0.875 -0.91016,-1.972657 -0.91016,-3.296875 0,-1.554688 0.39453,-2.78125 1.17969,-3.671875 0.74609,-0.847657 1.71094,-1.269531 2.90625,-1.269531"
       style="fill:#eb008a;fill-opacity:1;fill-rule:nonzero;stroke:none" />
    <path
       id="path28"
       d="m 197.51953,35.246094 h 1.10938 c 0.60937,0 1.03125,-0.128906 1.26171,-0.386719 0.19922,-0.226563 0.29688,-0.539063 0.29688,-0.9375 0,-0.484375 -0.16406,-0.839844 -0.49609,-1.0625 -0.19922,-0.136719 -0.53907,-0.203125 -1.01954,-0.203125 h -1.15234 z m -2.02344,5.222656 v -9.417969 h 3.6211 c 0.94922,0 1.68359,0.207031 2.20312,0.621094 0.59375,0.472656 0.89063,1.140625 0.89063,2.007813 0,0.710937 -0.21094,1.3125 -0.62891,1.800781 -0.18359,0.210937 -0.42578,0.390625 -0.72656,0.535156 0.38281,0.121094 0.67969,0.363281 0.89062,0.71875 0.14063,0.222656 0.23828,0.550781 0.29688,0.980469 0.0273,0.152344 0.0703,0.625 0.125,1.414062 0.0391,0.492188 0.0898,0.824219 0.15234,0.996094 0.0352,0.08984 0.0937,0.207031 0.17188,0.34375 h -2.08203 c -0.0664,-0.152344 -0.11329,-0.332031 -0.14063,-0.539062 -0.0117,-0.113282 -0.043,-0.519532 -0.0937,-1.214844 -0.0508,-0.652344 -0.13672,-1.085938 -0.25,-1.304688 -0.13672,-0.300781 -0.34766,-0.496094 -0.63672,-0.578125 -0.14062,-0.03906 -0.34375,-0.0625 -0.61328,-0.0625 h -1.15625 v 3.699219 h -2.02344"
       style="fill:#eb008a;fill-opacity:1;fill-rule:nonzero;stroke:none" />
    <path
       id="path30"
       d="m 207.10547,37.714844 h 2.03515 c 0.0547,0.367187 0.14063,0.640625 0.25391,0.820312 0.23828,0.371094 0.58594,0.554688 1.03516,0.554688 0.40234,0 0.71093,-0.125 0.93359,-0.375 0.19141,-0.210938 0.28906,-0.476563 0.28906,-0.800782 0,-0.363281 -0.15625,-0.671874 -0.46093,-0.921874 -0.14844,-0.121094 -0.33594,-0.230469 -0.5625,-0.324219 -0.0625,-0.02734 -0.29297,-0.113281 -0.69532,-0.257813 -0.77343,-0.269531 -1.33203,-0.542968 -1.67578,-0.8125 -0.6875,-0.542968 -1.02734,-1.253906 -1.02734,-2.132812 0,-0.753906 0.23828,-1.367188 0.71484,-1.84375 0.53516,-0.523438 1.27344,-0.785156 2.21485,-0.785156 1.17968,0 2.0625,0.402343 2.65234,1.207031 0.27344,0.378906 0.45703,0.875 0.54297,1.492187 h -1.97266 c -0.0469,-0.363281 -0.16015,-0.628906 -0.34375,-0.792968 -0.22265,-0.195313 -0.51953,-0.292969 -0.89062,-0.292969 -0.32032,0 -0.56641,0.07813 -0.7461,0.230469 -0.20703,0.167968 -0.30859,0.410156 -0.30859,0.722656 0,0.355468 0.15625,0.640625 0.46875,0.855468 0.22656,0.167969 0.68359,0.359376 1.36328,0.582032 0.79688,0.253906 1.41406,0.558594 1.85156,0.902344 0.63282,0.503906 0.95313,1.1875 0.95313,2.042968 0,0.855469 -0.29688,1.550782 -0.88281,2.082032 -0.61329,0.554687 -1.42969,0.828124 -2.45313,0.828124 -1.21875,0 -2.125,-0.457031 -2.72266,-1.371093 -0.30468,-0.46875 -0.49218,-1.007813 -0.5664,-1.609375"
       style="fill:#eb008a;fill-opacity:1;fill-rule:nonzero;stroke:none" />
    <path
       id="path32"
       d="m 215.08594,40.46875 v -9.417969 h 2.01953 v 3.582031 h 3.0039 v -3.582031 h 2.01954 v 9.417969 h -2.01954 v -4.113281 h -3.0039 v 4.113281 h -2.01953"
       style="fill:#eb008a;fill-opacity:1;fill-rule:nonzero;stroke:none" />
    <path
       id="path34"
       d="m 226.24609,36.839844 h 1.82813 l -0.91016,-3.25 z m -0.10937,-5.789063 h 2.07031 l 2.98047,9.417969 h -2.10547 l -0.58594,-2.105469 h -2.68359 l -0.59375,2.105469 h -2.07031 l 2.98828,-9.417969"
       style="fill:#eb008a;fill-opacity:1;fill-rule:nonzero;stroke:none" />
    <path
       id="path36"
       d="m 234.21875,35.246094 h 1.10937 c 0.61329,0 1.03516,-0.128906 1.26172,-0.386719 0.19922,-0.226563 0.29688,-0.539063 0.29688,-0.9375 0,-0.484375 -0.16406,-0.839844 -0.4961,-1.0625 -0.19531,-0.136719 -0.53515,-0.203125 -1.01953,-0.203125 h -1.15234 z m -2.02344,5.222656 v -9.417969 h 3.625 c 0.94531,0 1.67969,0.207031 2.19922,0.621094 0.59375,0.472656 0.89063,1.140625 0.89063,2.007813 0,0.710937 -0.21094,1.3125 -0.62891,1.800781 -0.18359,0.210937 -0.42578,0.390625 -0.72266,0.535156 0.38282,0.121094 0.67969,0.363281 0.89063,0.71875 0.13672,0.222656 0.23437,0.550781 0.29687,0.980469 0.0273,0.152344 0.0664,0.625 0.1211,1.414062 0.0391,0.492188 0.0898,0.824219 0.15234,0.996094 0.0391,0.08984 0.0937,0.207031 0.17188,0.34375 h -2.08204 c -0.0664,-0.152344 -0.10937,-0.332031 -0.13671,-0.539062 -0.0156,-0.113282 -0.0469,-0.519532 -0.0977,-1.214844 -0.0508,-0.652344 -0.13281,-1.085938 -0.25,-1.304688 -0.13672,-0.300781 -0.34766,-0.496094 -0.63281,-0.578125 -0.14453,-0.03906 -0.34766,-0.0625 -0.61328,-0.0625 h -1.16016 v 3.699219 h -2.02344"
       style="fill:#eb008a;fill-opacity:1;fill-rule:nonzero;stroke:none" />
    <path
       id="path38"
       d="m 240.6875,40.46875 v -9.417969 h 2.01953 v 9.417969 h -2.01953"
       style="fill:#eb008a;fill-opacity:1;fill-rule:nonzero;stroke:none" />
    <path
       id="path40"
       d="m 244.54687,40.46875 v -9.417969 h 2.04297 l 2.95313,6.058594 v -6.058594 h 1.9375 v 9.417969 h -2.02344 l -2.97266,-6.050781 v 6.050781 h -1.9375"
       style="fill:#eb008a;fill-opacity:1;fill-rule:nonzero;stroke:none" />
    <path
       id="path42"
       d="m 260.5625,40.46875 h -1.48438 v -1.0625 c -0.25781,0.332031 -0.48437,0.574219 -0.67578,0.730469 -0.46093,0.375 -1.01172,0.558593 -1.65625,0.558593 -1.18359,0 -2.11718,-0.476562 -2.80078,-1.425781 -0.66406,-0.921875 -0.99609,-2.074219 -0.99609,-3.457031 0,-1.390625 0.34765,-2.550781 1.04297,-3.480469 0.74609,-1 1.73437,-1.503906 2.97265,-1.503906 1.05469,0 1.92188,0.390625 2.60157,1.175781 0.4375,0.503906 0.71484,1.070313 0.82812,1.695313 0.0195,0.101562 0.0391,0.253906 0.0625,0.460937 h -1.96484 c -0.0703,-0.382812 -0.17969,-0.691406 -0.33203,-0.921875 -0.28907,-0.457031 -0.69922,-0.683593 -1.22266,-0.683593 -0.63281,0 -1.12109,0.300781 -1.46094,0.902343 -0.33594,0.585938 -0.5039,1.359375 -0.5039,2.328125 0,1.027344 0.1875,1.835938 0.5664,2.421875 C 255.88281,38.734375 256.36719,39 256.98828,39 c 0.57031,0 1.01563,-0.242188 1.33594,-0.726562 0.23047,-0.34375 0.36719,-0.800782 0.41015,-1.363282 h -1.6914 v -1.527344 h 3.51953 v 5.085938"
       style="fill:#eb008a;fill-opacity:1;fill-rule:nonzero;stroke:none" />
    <path
       id="path44"
       d="m 264.47266,38.441406 v 2.027344 h -2.07032 v -2.027344 h 2.07032"
       style="fill:#eb008a;fill-opacity:1;fill-rule:nonzero;stroke:none" />
  </g>
</svg>
