<?xml version="1.0" encoding="UTF-8" standalone="no"?>
<svg
   xmlns:dc="http://purl.org/dc/elements/1.1/"
   xmlns:cc="http://creativecommons.org/ns#"
   xmlns:rdf="http://www.w3.org/1999/02/22-rdf-syntax-ns#"
   xmlns:svg="http://www.w3.org/2000/svg"
   xmlns="http://www.w3.org/2000/svg"
   id="svg857"
   version="1.2"
   viewBox="0 0 747.2566 367.22831"
   height="367.2283pt"
   width="747.25659pt">
  <metadata
     id="metadata861">
    <rdf:RDF>
      <cc:Work
         rdf:about="">
        <dc:format>image/svg+xml</dc:format>
        <dc:type
           rdf:resource="http://purl.org/dc/dcmitype/StillImage" />
        <dc:title></dc:title>
      </cc:Work>
    </rdf:RDF>
  </metadata>
  <defs
     id="defs840">
    <clipPath
       id="clip1">
      <path
         id="path834"
         d="m 68,17 h 7.710938 v 8 H 68 Z m 0,0" />
    </clipPath>
    <clipPath
       id="clip2">
      <path
         id="path837"
         d="M 0,0 H 31 V 37.210938 H 0 Z m 0,0" />
    </clipPath>
  </defs>
  <g
     transform="matrix(9.8698634,0,0,9.8698634,0,-0.03855415)"
     id="surface7637">
    <path
       id="path842"
       d="m 0,24.652344 v -7.53125 h 7.535156 v 7.53125 H 0"
       style="fill:#eb008a;fill-opacity:1;fill-rule:nonzero;stroke:none" />
    <path
       id="path844"
       d="m 22.972656,24.652344 v -7.53125 h 7.535156 v 7.53125 h -7.535156"
       style="fill:#eb008a;fill-opacity:1;fill-rule:nonzero;stroke:none" />
    <path
       id="path846"
       d="m 45.574219,24.652344 v -7.53125 h 7.535156 v 7.53125 h -7.535156"
       style="fill:#eb008a;fill-opacity:1;fill-rule:nonzero;stroke:none" />
    <g
       style="clip-rule:nonzero"
       id="g850"
       clip-path="url(#clip1)">
      <path
         id="path848"
         d="m 68.175781,24.652344 v -7.53125 h 7.535157 v 7.53125 h -7.535157"
         style="fill:#eb008a;fill-opacity:1;fill-rule:nonzero;stroke:none" />
    </g>
    <g
       style="clip-rule:nonzero"
       id="g854"
       clip-path="url(#clip2)">
      <path
         id="path852"
         d="M 30.136719,0.00390625 H 0.371094 L 0,13.132812 1.972656,13.472656 C 2.34375,9.605469 3.355469,6.734375 5.019531,4.863281 c 1.75,-1.960937 4.160157,-2.984375 7.257813,-3.074219 v 27.464844 c 0,2.398438 -0.335938,3.957032 -1.035156,4.675782 -0.59375,0.609374 -1.601563,0.988281 -3.019532,1.128906 -0.421875,0.03125 -1.136718,0.05078 -2.152344,0.05078 v 2.101563 H 24.4375 v -2.101563 c -1.015625,0 -1.730469,-0.01953 -2.152344,-0.05078 -1.417968,-0.140625 -2.425781,-0.519532 -3.019531,-1.128906 -0.699219,-0.71875 -1.039063,-2.277344 -1.039063,-4.675782 V 1.789062 c 3.097657,0.089844 5.511719,1.113282 7.261719,3.074219 1.664063,1.871094 2.675781,4.742188 3.046875,8.609375 L 30.507812,13.132812 30.136719,0.00390625"
         style="fill:#eb008a;fill-opacity:1;fill-rule:nonzero;stroke:none" />
    </g>
  </g>
</svg>
